<svg width="24" height="24" viewBox="0 0 24 24" fill="none" xmlns="http://www.w3.org/2000/svg">
<path d="M4 12H20V19.2C20 19.4122 19.9157 19.6157 19.7657 19.7657C19.6157 19.9157 19.4122 20 19.2 20H4.8C4.58783 20 4.38434 19.9157 4.23431 19.7657C4.08429 19.6157 4 19.4122 4 19.2V12ZM16 5.6H19.2C19.4122 5.6 19.6157 5.68429 19.7657 5.83431C19.9157 5.98434 20 6.18783 20 6.4V10.4H4V6.4C4 6.18783 4.08429 5.98434 4.23431 5.83431C4.38434 5.68429 4.58783 5.6 4.8 5.6H8V4H9.6V5.6H14.4V4H16V5.6Z" fill="#BCB8D0"/>
</svg>
