<svg width="401" height="582" viewBox="0 0 401 582" fill="none" xmlns="http://www.w3.org/2000/svg">
<path d="M401 0V213.029L387.381 224.864V12.5311L401 0Z" fill="#F58859"/>
<path d="M368.466 29.9353V242.268L355.604 254.799V41.7703L368.466 29.9353Z" fill="#F58859"/>
<path d="M336.689 59.1746V272.203L323.07 284.038V71.7057L336.689 59.1746Z" fill="#F58859"/>
<path d="M304.155 89.11V302.139L290.536 313.974V101.641L304.155 89.11Z" fill="#F58859"/>
<path d="M271.621 119.045V331.378L258.758 343.909V130.88L271.621 119.045Z" fill="#F58859"/>
<path d="M239.844 148.285V361.313L226.225 373.844V160.816L239.844 148.285Z" fill="#F58859"/>
<path d="M207.309 178.22V391.249L193.69 403.084V190.751L207.309 178.22Z" fill="#F58859"/>
<path d="M174.775 208.156V420.488L161.156 433.019V220.687L174.775 208.156Z" fill="#F58859"/>
<path d="M142.241 238.091V450.423L129.379 462.955V249.926L142.241 238.091Z" fill="#F58859"/>
<path d="M110.464 267.33V480.359L96.8452 492.194V279.861L110.464 267.33Z" fill="#F58859"/>
<path d="M77.9302 297.266V510.294L64.3113 522.129V309.797L77.9302 297.266Z" fill="#F58859"/>
<path d="M45.3961 327.201V539.533L32.5339 552.065V339.036L45.3961 327.201Z" fill="#F58859"/>
<path d="M13.6189 356.44V569.469L0 582V368.971L13.6189 356.44Z" fill="#F58859"/>
</svg>
