<svg width="24" height="24" viewBox="0 0 24 24" fill="none" xmlns="http://www.w3.org/2000/svg">
<path d="M7.00623 6.25848C8.42288 5.16392 10.1847 4.56876 12 4.57155C13.8889 4.57155 15.6249 5.20243 16.9938 6.25848L18.2853 5.013L19.5422 6.22505L18.2507 7.47054C19.1908 8.60558 19.7796 9.97354 19.9492 11.417C20.1187 12.8605 19.8622 14.3208 19.2091 15.6298C18.5561 16.9389 17.533 18.0436 16.2576 18.8167C14.9822 19.5898 13.5064 20 12 20C10.4936 20 9.01776 19.5898 7.74239 18.8167C6.46703 18.0436 5.44394 16.9389 4.79087 15.6298C4.1378 14.3208 3.88128 12.8605 4.05084 11.417C4.22041 9.97354 4.80916 8.60558 5.74934 7.47054L4.45778 6.22591L5.71467 5.01385L7.00623 6.25934V6.25848ZM12.8889 11.429V7.5674L8.44445 13.1434H11.1111V17.0007L15.5556 11.429H12.8889ZM8.44445 2H15.5556V3.71437H8.44445V2Z" fill="#BCB8D0"/>
</svg>
