<svg width="24" height="24" viewBox="0 0 24 24" fill="none" xmlns="http://www.w3.org/2000/svg">
<path d="M6.84573 5.16147C7.34092 4.98481 7.87608 4.95235 8.389 5.06784C8.90192 5.18333 9.37152 5.44203 9.7432 5.81387C10.1149 6.18571 10.3734 6.65541 10.4887 7.16837C10.6039 7.68132 10.5712 8.21646 10.3943 8.71156L19 17.317L17.3162 19L8.71049 10.3954C8.2153 10.572 7.68013 10.6045 7.16722 10.489C6.6543 10.3735 6.1847 10.1148 5.81301 9.74295C5.44133 9.37111 5.18283 8.90141 5.06757 8.38845C4.9523 7.8755 4.98501 7.34036 5.16189 6.84526L6.93619 8.62031C7.04599 8.73399 7.17733 8.82466 7.32255 8.88704C7.46776 8.94942 7.62395 8.98225 7.782 8.98363C7.94004 8.985 8.09677 8.95489 8.24305 8.89504C8.38933 8.83519 8.52223 8.74681 8.63399 8.63506C8.74575 8.5233 8.83413 8.39041 8.89398 8.24414C8.95382 8.09786 8.98394 7.94113 8.98257 7.78309C8.98119 7.62505 8.94836 7.46887 8.88598 7.32365C8.8236 7.17844 8.73292 7.0471 8.61923 6.93731L6.84493 5.16067L6.84573 5.16147ZM15.0721 6.65641L17.5971 5.25351L18.7191 6.37551L17.3162 8.90041L15.9132 9.18131L14.231 10.8643L13.1081 9.74231L14.7912 8.05931L15.0721 6.65641ZM9.46115 12.8282L11.1442 14.512L7.2163 18.4398C6.9997 18.6544 6.70902 18.7776 6.4042 18.7842C6.09938 18.7907 5.80367 18.6801 5.57805 18.475C5.35243 18.27 5.2141 17.9861 5.19159 17.6821C5.16908 17.378 5.26411 17.0769 5.45708 16.8409L5.53405 16.756L9.46195 12.8282H9.46115Z" fill="#BCB8D0"/>
</svg>
