<svg width="48" height="48" viewBox="0 0 48 48" fill="none" xmlns="http://www.w3.org/2000/svg">
<path d="M15.504 10.878L36.52 23.138C36.6706 23.2262 36.7955 23.3522 36.8823 23.5036C36.9691 23.655 37.0148 23.8265 37.0148 24.001C37.0148 24.1755 36.9691 24.347 36.8823 24.4984C36.7955 24.6498 36.6706 24.7758 36.52 24.864L15.504 37.124C15.3517 37.2129 15.1787 37.2599 15.0024 37.2603C14.8261 37.2607 14.6528 37.2145 14.5001 37.1264C14.3475 37.0383 14.2208 36.9114 14.1329 36.7585C14.0451 36.6056 13.9993 36.4323 14 36.256V11.742C14 11.566 14.0463 11.3932 14.1345 11.2409C14.2226 11.0886 14.3493 10.9622 14.5019 10.8746C14.6545 10.7869 14.8275 10.7411 15.0034 10.7417C15.1794 10.7423 15.352 10.7893 15.504 10.878Z" fill="white"/>
</svg>
