<svg width="220" height="320" viewBox="0 0 220 320" fill="none" xmlns="http://www.w3.org/2000/svg">
<path d="M220 0V117.129L212.528 123.636V6.88995L220 0Z" fill="#F58859"/>
<path d="M202.151 16.4593V133.206L195.094 140.096V22.9665L202.151 16.4593Z" fill="#F58859"/>
<path d="M184.717 32.5359V149.665L177.245 156.172V39.4258L184.717 32.5359Z" fill="#F58859"/>
<path d="M166.868 48.9952V166.124L159.396 172.632V55.8851L166.868 48.9952Z" fill="#F58859"/>
<path d="M149.019 65.4545V182.201L141.962 189.091V71.9616L149.019 65.4545Z" fill="#F58859"/>
<path d="M131.585 81.5311V198.66L124.113 205.55V88.421L131.585 81.5311Z" fill="#F58859"/>
<path d="M113.736 97.9904V215.12L106.264 221.627V104.88L113.736 97.9904Z" fill="#F58859"/>
<path d="M95.8867 114.45V231.196L88.415 238.086V121.34L95.8867 114.45Z" fill="#F58859"/>
<path d="M78.0376 130.909V247.656L70.981 254.545V137.416L78.0376 130.909Z" fill="#F58859"/>
<path d="M60.6037 146.986V264.115L53.132 270.622V153.876L60.6037 146.986Z" fill="#F58859"/>
<path d="M42.7547 163.445V280.574L35.283 287.081V170.335L42.7547 163.445Z" fill="#F58859"/>
<path d="M24.9056 179.904V296.651L17.849 303.541V186.411L24.9056 179.904Z" fill="#F58859"/>
<path d="M7.4717 195.981V313.11L0 320V202.871L7.4717 195.981Z" fill="#F58859"/>
</svg>
