<svg width="256" height="256" viewBox="0 0 256 256" fill="none" xmlns="http://www.w3.org/2000/svg">
<path d="M128.001 234.667C69.0887 234.667 21.334 186.913 21.334 128.001C21.334 69.0887 69.0887 21.334 128.001 21.334C186.913 21.334 234.667 69.0887 234.667 128.001C234.667 186.913 186.913 234.667 128.001 234.667ZM74.6673 128.001C74.6673 142.146 80.2864 155.711 90.2883 165.713C100.29 175.715 113.856 181.334 128.001 181.334C142.146 181.334 155.711 175.715 165.713 165.713C175.715 155.711 181.334 142.146 181.334 128.001H160.001C160.001 136.488 156.629 144.627 150.628 150.628C144.627 156.629 136.488 160.001 128.001 160.001C119.514 160.001 111.374 156.629 105.373 150.628C99.3721 144.627 96.0007 136.488 96.0007 128.001H74.6673Z" fill="#F58859"/>
</svg>
